<svg xmlns="http://www.w3.org/2000/svg" width="50" height="32" fill="none" xmlns:v="https://vecta.io/nano"><path d="M15.439 25.803l-.091.088c-1.433 1.46-3.091 2.231-4.799 2.231-3.567 0-6.155-2.676-6.155-6.367 0-3.685 2.588-6.366 6.155-6.366 1.708 0 3.366.776 4.799 2.241l.091.087 2.294-2.774-.061-.074c-1.907-2.254-4.197-3.35-7.011-3.35-2.821 0-5.405.951-7.264 2.663-2.025 1.856-3.09 4.474-3.09 7.573s1.065 5.723 3.089 7.579C5.255 31.056 7.838 32 10.66 32c2.814 0 5.104-1.098 7.011-3.353l.061-.068-2.294-2.776zm4.612 5.818h4.052V11.839h-4.052v19.783zm19.923-4.3c-1.082.659-2.087.991-2.991.991-1.31 0-1.903-.693-1.903-2.233V15.582h4.13v-3.724h-4.13V5.702l-3.971 2.127v4.029h-3.427v3.724h3.427v11.166c0 3.041 1.802 5.122 4.494 5.177 1.826.036 2.927-.509 3.594-.908l.043-.027.974-3.815-.239.147zm3.354 4.3h4.057V11.839h-4.057v19.783z" fill="#fff"/><path d="M49.75 8.371C46.048 3.128 39.9 0 33.646 0S21.244 3.128 17.549 8.371l-.191.269h4.662l.051-.056c3.172-3.276 7.315-5.007 11.575-5.007s8.4 1.731 11.579 5.007l.051.056h4.659l-.185-.269z" fill="#ee1c25"/></svg>