<svg xmlns="http://www.w3.org/2000/svg" width="28" height="32" fill="none" xmlns:v="https://vecta.io/nano"><path d="M11.37 10.321a4.24 4.24 0 0 0-1.438 1.581l-1.111-1.07a5.36 5.36 0 0 0-3.729-1.501H1.55V7.198h3.547a7.48 7.48 0 0 1 5.215 2.101l1.058 1.022zm13.459 8.433a19.47 19.47 0 0 1-.755 1.799l-.166.334h-1.6a7.48 7.48 0 0 1-5.215-2.101l-1.285-1.235a4.27 4.27 0 0 0 1.535-1.485l1.236 1.187a5.36 5.36 0 0 0 3.729 1.501h2.521z" fill="#00b2e3"/><path d="M27.998 12.397V1.288l-2.635-.41c-7.529-1.17-15.196-1.17-22.725 0l-2.635.41v11.11c-.103 6.069 2.963 11.925 7.09 15.11 0 0 3.252 2.735 6.908 3.823 4.099-1.32 6.908-3.823 6.908-3.823 4.127-3.184 7.193-9.041 7.09-15.11zm-25.902.036V3.034l.645-.099c7.462-1.151 15.054-1.151 22.516 0l.645.099v4.016h-3.493A7.32 7.32 0 0 0 17.3 9.107l-1.033.993a4.14 4.14 0 0 0-2.271-.67 4.16 4.16 0 0 0-4.166 4.15 4.12 4.12 0 0 0 .597 2.144l-1.222 1.178c-.985.946-2.283 1.47-3.189 1.47H3.108c-.696-1.947-1.044-3.965-1.013-5.939zm22.056 7.693c-1.116 2.302-2.722 4.339-4.526 5.73 0 0-2.425 2.089-5.642 3.271-2.932-1.052-5.606-3.271-5.606-3.271-1.721-1.324-3.26-3.235-4.364-5.403h1.543a7.33 7.33 0 0 0 5.108-2.057l1.266-1.218c.609.351 1.318.548 2.069.548a4.16 4.16 0 0 0 4.166-4.15c0-.701-.174-1.36-.483-1.939l1.076-1.032c.985-.946 2.279-1.47 3.652-1.47h3.493v3.295c.04 2.581-.566 5.242-1.753 7.697z" fill="#000096"/><path d="M9.448 13.864a4.25 4.25 0 0 0 .113.97H1.659c-.121-.986-.109-1.944-.109-1.944h8.011a4.31 4.31 0 0 0-.113.974zm16.413-.974s.016.845-.109 1.944h-7.906a4.25 4.25 0 0 0 0-1.94h8.015v-.004zM13.7 16.374c1.392 0 2.521-1.124 2.521-2.511s-1.129-2.511-2.521-2.511-2.521 1.124-2.521 2.511 1.129 2.511 2.521 2.511z" fill="#ff6b00"/></svg>