<svg xmlns="http://www.w3.org/2000/svg" width="71" height="21" fill="none" xmlns:v="https://vecta.io/nano"><path d="M31.854 14.461h-2.556l-2.304-4.044h-1.3v4.044h-2.186V3.352h4.18c1.211 0 2.137.341 2.777 1.022s.96 1.513.96 2.495a3.59 3.59 0 0 1-.576 1.999c-.374.581-.921 1.002-1.64 1.263l2.644 4.329zm-4.18-9.049h-1.979v3.006h1.787c.551 0 .97-.14 1.256-.421.295-.281.443-.646.443-1.097 0-.431-.138-.787-.414-1.067-.266-.281-.63-.421-1.093-.421zm13.386 4.765c0 .25-.025.561-.074.932h-6.042c.295 1.163 1.078 1.744 2.349 1.744a4.48 4.48 0 0 0 2.6-.827l.827 1.488c-1.024.752-2.196 1.127-3.516 1.127-1.408 0-2.492-.416-3.25-1.248-.748-.822-1.123-1.834-1.123-3.036 0-1.253.389-2.28 1.167-3.082.778-.812 1.787-1.218 3.028-1.218 1.172 0 2.137.371 2.895 1.112s1.137 1.744 1.137 3.006zm-4.033-2.36c-.522 0-.97.155-1.344.466-.364.301-.611.717-.739 1.248h4.092c-.099-.531-.325-.947-.68-1.248-.355-.311-.798-.466-1.329-.466zm10.021 2.525l2.585 4.119H47.24l-1.536-2.691-1.61 2.691h-2.408l2.674-4.179-2.378-4.014h2.378l1.374 2.51 1.477-2.51h2.349l-2.511 4.074zm9.184 1.969l.62 1.668c-.67.451-1.462.677-2.378.677-.926 0-1.625-.271-2.098-.812-.473-.551-.709-1.358-.709-2.42V8.042h-1.315V6.268h1.33V3.367h2.068v2.901h2.659v1.774H53.75v3.247c0 .962.379 1.443 1.137 1.443.414 0 .862-.14 1.344-.421zM60.5 4.044c0 .371-.123.681-.369.932a1.23 1.23 0 0 1-.916.376 1.23 1.23 0 0 1-.916-.376c-.246-.251-.369-.561-.369-.932s.123-.676.369-.917a1.23 1.23 0 0 1 .916-.376 1.23 1.23 0 0 1 .916.376c.246.241.369.546.369.917zm-.251 2.225v8.193h-2.083V6.268h2.083zm9.964 3.908c0 .25-.025.561-.074.932h-6.042c.295 1.163 1.078 1.744 2.349 1.744a4.48 4.48 0 0 0 2.6-.827l.827 1.488c-1.024.752-2.196 1.127-3.516 1.127-1.408 0-2.492-.416-3.25-1.248-.748-.822-1.123-1.834-1.123-3.036 0-1.253.389-2.28 1.167-3.082.778-.812 1.787-1.218 3.028-1.218 1.172 0 2.137.371 2.895 1.112s1.137 1.744 1.137 3.006zm-4.033-2.36c-.522 0-.97.155-1.344.466-.364.301-.611.717-.739 1.248h4.092c-.098-.531-.325-.947-.68-1.248-.354-.311-.798-.466-1.329-.466z" fill="#fff"/><path d="M6.935 8.757a2.74 2.74 0 0 0 .07.613H2.031c-.076-.622-.069-1.226-.069-1.226h5.044a2.64 2.64 0 0 0-.07.613m10.333-.613s.011.532-.069 1.226h-4.976a2.64 2.64 0 0 0 .07-.613 2.64 2.64 0 0 0-.07-.613h5.046-.002z" fill="#ff6e00"/><path d="M8.146 6.519a2.67 2.67 0 0 0-.905.997l-.699-.674a3.36 3.36 0 0 0-2.347-.947H1.962V4.55h2.232a4.7 4.7 0 0 1 3.282 1.325l.668.646.002-.002zm8.471 5.326a11.27 11.27 0 0 1-.477 1.134l-.105.211h-1.007a4.7 4.7 0 0 1-3.282-1.325l-.809-.781c.397-.225.731-.55.968-.938l.778.75a3.36 3.36 0 0 0 2.347.947h1.589l-.002.002z" fill="#00c8ff"/><path d="M18.614 7.996V.835L16.921.57c-4.84-.756-9.769-.756-14.611 0L.614.835v7.161c-.065 3.913 1.907 7.688 4.559 9.74 0 0 2.091 1.764 4.441 2.465 2.634-.851 4.441-2.465 4.441-2.465 2.652-2.052 4.624-5.827 4.559-9.74zm-16.652.022V1.959l.415-.065a47.39 47.39 0 0 1 14.474 0l.415.065v2.59h-2.246a4.7 4.7 0 0 0-3.282 1.325l-.664.64a2.66 2.66 0 0 0-1.461-.433c-1.48 0-2.679 1.197-2.679 2.676 0 .505.141.977.385 1.381l-.785.759c-.634.611-1.466.947-2.049.947h-1.87c-.448-1.251-.673-2.553-.652-3.827zm14.178 4.961c-.717 1.484-1.751 2.797-2.91 3.693 0 0-1.558 1.347-3.625 2.108-1.885-.678-3.605-2.108-3.605-2.108-1.103-.855-2.093-2.085-2.804-3.482h.991a4.7 4.7 0 0 0 3.282-1.325l.814-.786a2.66 2.66 0 0 0 1.331.354c1.48 0 2.679-1.197 2.679-2.676 0-.451-.112-.876-.311-1.25l.691-.667c.632-.61 1.466-.947 2.347-.947h2.246v2.124c.027 1.663-.363 3.378-1.127 4.961" fill="#fff"/><path d="M11.201 8.757a1.59 1.59 0 0 1-1.589 1.587 1.59 1.59 0 0 1-1.589-1.587A1.59 1.59 0 0 1 9.612 7.17a1.59 1.59 0 0 1 1.589 1.587z" fill="#ff6e00"/></svg>