<svg xmlns="http://www.w3.org/2000/svg" width="32" height="31" fill="none" xmlns:v="https://vecta.io/nano"><path d="M15.514 0c8.571 0 15.523 6.952 15.523 15.505A15.52 15.52 0 0 1 15.505 31C6.915 30.982-.009 24.058 0 15.486A15.49 15.49 0 0 1 15.514 0zM7.971 18.434c0-.018.009-.027.009-.046.045-.018.091-.027.137-.046 1.774-.509 2.903-2.22 2.684-4.058-.237-1.984-2.029-3.439-4.031-3.266-1.883.164-3.367 1.701-3.403 3.585l-.018 4.513v1.065c0 .118.036.155.155.155a20.76 20.76 0 0 1 1.065 0c.155.009.191-.045.191-.191v-2.247c0-.055.009-.109.009-.191.064.064.091.1.127.136.4.364.783.764 1.219 1.092 1.365 1.01 2.939 1.374 4.604 1.428.118 0 .146-.045.146-.155v-1.065c0-.109-.036-.137-.146-.155a23.37 23.37 0 0 1-1.601-.227c-.391-.073-.764-.209-1.146-.328zm4.031 1.938h1.201c.155 0 .2-.046.2-.2v-2.247-.2c.073.046.118.073.155.1.828.582 1.738.819 2.739.664 1.947-.3 3.285-2.002 3.157-3.976-.164-2.493-2.748-4.131-5.077-3.212-1.474.582-2.375 1.947-2.384 3.612v5.232a2.06 2.06 0 0 0 .009.227zm9.472-2.557h.045c.027.018.064.046.091.064 1.183.819 2.448.974 3.758.373 1.319-.61 2.047-1.683 2.166-3.13.182-2.284-1.72-4.158-4.004-3.994-1.902.136-3.421 1.72-3.448 3.63l-.009 5.523c0 .136.055.164.173.155.355-.009.71-.009 1.055 0 .137 0 .173-.036.173-.173v-2.284-.164z" fill="#fadf4b"/><path d="M7.97 18.434l1.146.328 1.601.227c.109.018.146.046.146.155v1.065c0 .109-.027.155-.146.155-1.665-.055-3.239-.419-4.604-1.429-.437-.318-.81-.728-1.219-1.092l-.127-.136-.009.191v2.247c0 .146-.036.2-.191.191a20.76 20.76 0 0 0-1.065 0c-.118 0-.164-.037-.155-.155v-1.065l.018-4.513c.036-1.883 1.529-3.421 3.403-3.585 2.002-.173 3.794 1.283 4.031 3.267.218 1.838-.91 3.549-2.684 4.058a.8.8 0 0 0-.137.046c-.009.018-.009.036-.009.046zm-.864-1.438a2.25 2.25 0 0 0 2.266-2.211c.018-1.21-.992-2.238-2.229-2.247s-2.266.983-2.275 2.202c-.018 1.237.974 2.247 2.238 2.257zm4.895 3.376l-.009-.218v-5.232c0-1.665.91-3.03 2.384-3.612 2.329-.919 4.913.719 5.077 3.212.127 1.974-1.21 3.676-3.157 3.976-1.001.155-1.911-.082-2.739-.664l-.155-.1v.2 2.247c0 .155-.036.209-.2.2l-1.201-.009zm3.749-7.798c-1.256.009-2.257 1.001-2.247 2.247a2.25 2.25 0 0 0 2.257 2.22c1.247 0 2.256-1.019 2.247-2.248-.018-1.246-1.019-2.229-2.256-2.22zm5.723 5.242v.173 2.284c0 .136-.036.173-.173.173-.355-.009-.71-.009-1.055 0-.118 0-.173-.027-.173-.155l.009-5.523c.018-1.902 1.547-3.494 3.449-3.63 2.284-.164 4.185 1.711 4.003 3.995-.118 1.447-.846 2.52-2.166 3.13-1.301.601-2.575.446-3.758-.373l-.091-.064c-.009-.018-.018-.009-.045-.009zm.109-2.948c0 1.228.992 2.22 2.238 2.238a2.25 2.25 0 0 0 2.257-2.238c0-1.237-1.01-2.238-2.257-2.238-1.237.009-2.238 1.001-2.238 2.238z" fill="#1e1e1e"/><path d="M7.106 16.997a2.23 2.23 0 0 1-2.238-2.266c.009-1.219 1.037-2.211 2.275-2.202s2.247 1.037 2.229 2.247c-.027 1.247-1.037 2.229-2.266 2.22zm8.644-4.423c1.237-.009 2.247.983 2.256 2.22.009 1.228-1.001 2.248-2.247 2.248a2.25 2.25 0 0 1-2.257-2.22c-.009-1.247.992-2.238 2.248-2.247zm5.833 2.294c0-1.228 1.001-2.229 2.238-2.229 1.247 0 2.257 1.001 2.257 2.238s-1.028 2.247-2.257 2.238c-1.247-.027-2.238-1.019-2.238-2.247z" fill="#fadf4b"/></svg>