<svg xmlns="http://www.w3.org/2000/svg" width="59" height="19" fill="#1b2564" xmlns:v="https://vecta.io/nano"><path d="M58.621 18.657c-.14.037-4.201.044-4.385.007l-.589-2.774h-.191-5.717c-.206 0-.169 0-.228.162l-.854 2.465c-.059.162-.059.162-.228.162h-4.606c-.059 0-.11-.007-.184-.007l.051-.147 2.068-4.974 3.429-8.234 1.391-3.348a4.46 4.46 0 0 1 .427-.809c.405-.581.964-.876 1.663-.89l1.641-.007h2.281.191l3.841 18.395zM51.455 5.302c-.015 0-.029 0-.044-.007l-2.458 6.85c.169.037 3.826.037 3.966 0l-1.464-6.843zM14.562 18.687H9.573l-.052-.162-2.068-7.976-1.67-6.438-.177-.581a1.92 1.92 0 0 0-.876-1.074c-.412-.25-.861-.419-1.302-.596A19.31 19.31 0 0 0 .125.887C.088.88.059.865 0 .851L.096.284.294.277h6.843.971c.515.015.993.155 1.405.478.434.338.677.795.78 1.332l.802 4.231.92 4.849.28 1.472c.007.037.022.066.044.14L17.277.277h4.945c.007.007.007.015.007.022-.007.037-.007.059-.015.074l-7.652 18.314zM42.736.799l-.839 3.87-.132-.052a9.73 9.73 0 0 0-2.84-.765c-.64-.074-1.28-.081-1.913.044-.456.088-.883.243-1.251.53-.177.14-.324.309-.427.515-.154.324-.154.648.022.957a2.49 2.49 0 0 0 .346.434c.25.25.545.434.846.603l1.906 1.045c.618.346 1.214.728 1.751 1.199.581.508 1.045 1.104 1.332 1.825a4.34 4.34 0 0 1 .302 1.494c.022.861-.11 1.7-.449 2.502-.427 1.008-1.111 1.803-2.001 2.428-.868.611-1.832 1.001-2.855 1.251-1.214.294-2.45.368-3.694.294-1.258-.074-2.487-.309-3.686-.692l-.662-.236c-.052-.015-.096-.044-.155-.066l.854-3.995.118.052a10.16 10.16 0 0 0 3.458 1.074c.53.066 1.06.088 1.589.051.581-.044 1.141-.176 1.648-.478.294-.177.552-.397.714-.699a1.23 1.23 0 0 0-.044-1.332c-.14-.221-.324-.39-.53-.552-.434-.346-.92-.611-1.405-.876l-2.001-1.148c-.552-.368-1.067-.78-1.494-1.295-.721-.868-1.015-1.869-.942-2.987a5.51 5.51 0 0 1 .618-2.259c.471-.89 1.163-1.582 2.001-2.126.964-.625 2.016-1.001 3.142-1.214.912-.177 1.832-.228 2.752-.177 1.273.066 2.509.287 3.709.721.081 0 .14.029.213.059zM20.367 18.665l3.9-18.381h4.687l.015.015a.29.29 0 0 1 0 .11l-3.856 18.219c-.007.022-.015.037-.022.052a125.64 125.64 0 0 1-4.724-.015z"/></svg>