<svg xmlns="http://www.w3.org/2000/svg" width="87" height="28" fill="#fff" xmlns:v="https://vecta.io/nano"><path d="M37.415 27.533h-7.043L34.774.483h7.043l-4.402 27.05zM24.448.483l-6.714 18.605-.795-4.006v.001l-2.37-12.165S14.284.483 11.23.483H.13L0 .941s3.394.706 7.367 3.092l6.119 23.501h7.338L32.027.483h-7.579zm55.393 27.05h6.466L80.669.483h-5.661c-2.614 0-3.251 2.016-3.251 2.016L61.254 27.533h7.341l1.468-4.018h8.953l.825 4.018zm-7.749-9.568l3.7-10.123 2.082 10.123h-5.782zM61.805 6.988l1.005-5.809S59.708 0 56.475 0c-3.495 0-11.794 1.527-11.794 8.955 0 6.988 9.741 7.075 9.741 10.746s-8.737 3.013-11.621.698l-1.047 6.074S44.899 28 49.704 28s12.056-2.488 12.056-9.261c0-7.033-9.828-7.688-9.828-10.746s6.859-2.666 9.873-1.005z"/><path d="M16.94 15.083l-2.37-12.165S14.284.482 11.23.482H.13L0 .94s5.335 1.106 10.452 5.248c4.893 3.959 6.488 8.894 6.488 8.894z"/></svg>